<svg width="256" height="256" viewBox="0 0 256 256" fill="none" xmlns="http://www.w3.org/2000/svg">
<path d="M196.61 80.5273C198.981 82.6863 201.534 84.6184 204.016 86.6459L222.199 101.375C222.941 101.977 224.959 102.975 225.224 103.89L225.044 104.134C224.138 103.521 220.484 104.126 219.253 104.129L204.882 104.138C202.155 104.137 199.317 104.305 196.61 103.993C196.609 96.1733 196.695 88.3458 196.61 80.5273Z" fill="#4C87D8"/>
<path d="M60.1846 79.3691L60.1856 95.6196C60.1856 98.2836 60.2686 100.975 60.1846 103.636C51.2681 103.599 40.4204 103.627 31.6258 104.065C31.5035 103.884 31.5017 103.622 31.4688 103.407C32.3669 101.918 36.8264 98.8126 38.346 97.5441L52.3806 85.8291C54.5396 84.0531 58.0031 80.7446 60.1846 79.3691Z" fill="#4C87D8"/>
<path d="M91.9639 53.5184C94.9074 50.9694 97.9619 48.6055 101.002 46.179L112.421 37.0058C116.123 34.0631 124.004 26.5984 128.58 26.8654C132.516 27.0951 137.055 31.8975 139.968 34.2214L154.96 46.1998C157.404 48.1575 162.341 51.4504 164.229 53.5184C158.538 53.7079 152.777 53.5184 147.077 53.5179L97.5104 53.5214C95.9229 53.5239 93.4064 53.7954 91.9639 53.5184Z" fill="#4C87D8"/>
<path d="M31.4682 103.407C31.5011 103.622 31.503 103.884 31.6253 104.065C40.4199 103.627 51.2675 103.599 60.184 103.636L60.181 119.33C60.1805 121.902 60.0415 124.554 60.184 127.118C60.2925 129.361 63.1145 130.738 64.9445 132.273L94.0035 156.509C97.4945 159.434 101.212 162.273 104.503 165.421C103.215 166.557 101.818 167.571 100.496 168.667L40.9051 217.965C39.0625 219.455 35.5886 221.911 34.1476 223.573C29.8609 217.631 30.9198 212.463 30.9221 205.497L30.9236 113.08C30.9231 110.106 31.0153 107.105 30.9261 104.134C30.8487 103.857 30.8555 104.003 30.925 103.697L31.4682 103.407Z" fill="#87C1F7"/>
<path d="M31.4689 103.407C31.5018 103.622 31.5036 103.884 31.6259 104.065C40.4205 103.627 51.2682 103.599 60.1847 103.636L60.1817 119.33C60.1812 121.902 60.0422 124.554 60.1847 127.118C60.0442 129.831 56.4782 125.164 54.7712 123.725L39.5167 111.009C37.7924 109.551 32.6379 104.91 30.9268 104.134C30.8493 103.857 30.8562 104.003 30.9257 103.697L31.4689 103.407Z" fill="#3665C2"/>
<path d="M196.611 103.993C199.317 104.305 202.155 104.137 204.883 104.138L219.254 104.129C220.485 104.126 224.139 103.521 225.045 104.134C225.285 105.07 225.044 109.481 225.044 110.761L225.046 204.096C225.045 210.493 226.21 218.454 221.546 223.573C219.003 221.17 216.16 219.041 213.463 216.814L168.375 179.498C162.706 174.796 156.954 170.184 151.336 165.421C155.743 161.323 160.565 157.587 165.172 153.713L187.846 134.283C190.648 131.845 194.049 129.788 196.611 127.118C196.803 124.667 196.618 122.058 196.617 119.586L196.611 103.993Z" fill="#87C1F7"/>
<path d="M196.61 103.993C199.317 104.305 202.155 104.137 204.882 104.138L219.253 104.129C220.484 104.126 224.138 103.521 225.044 104.134C222.39 105.737 220.044 108.073 217.645 110.032L198.869 125.195C198.121 125.819 197.405 126.565 196.61 127.118C196.803 124.667 196.617 122.058 196.616 119.586L196.61 103.993Z" fill="#3665C2"/>
<path d="M104.503 165.421C109.291 161.673 113.963 157.75 118.716 153.953C129.769 145.122 129.372 147.277 139.425 155.635L151.336 165.421C156.954 170.184 162.706 174.796 168.375 179.498L213.463 216.814C216.16 219.041 219.003 221.17 221.546 223.573C216.085 229.053 208.205 227.469 201.006 227.47L48.6303 227.473C42.3867 227.491 39.1125 228.228 34.1484 223.573C35.5895 221.911 39.0634 219.455 40.9059 217.965L100.496 168.667C101.819 167.571 103.216 166.557 104.503 165.421Z" fill="#4C87D8"/>
<path d="M60.1844 79.3696C61.1139 75.9591 59.3784 66.2816 60.6789 60.7216C62.4159 53.2966 67.9898 53.7571 74.0468 53.6316C78.9248 53.5306 87.3404 54.1181 91.7929 53.5421L91.9634 53.5186C93.4059 53.7956 95.9224 53.5241 97.5099 53.5216L147.076 53.5181C152.776 53.5186 158.537 53.7081 164.228 53.5186C165.754 53.9276 167.339 53.5191 168.886 53.5071C173.48 53.4711 187.01 53.0896 190.49 54.4826C200.65 58.5491 194.135 74.0056 196.61 80.5276C196.695 88.3461 196.609 96.1736 196.61 103.993L196.616 119.587C196.617 122.058 196.803 124.667 196.61 127.119C194.049 129.789 190.647 131.845 187.846 134.283L165.171 153.713C160.565 157.588 155.743 161.323 151.335 165.422L139.425 155.635C129.372 147.277 129.769 145.122 118.715 153.954C113.962 157.751 109.29 161.673 104.503 165.422C101.212 162.273 97.4949 159.434 94.0038 156.509L64.9448 132.273C63.1149 130.739 60.2929 129.362 60.1844 127.119C60.0419 124.555 60.1808 121.903 60.1813 119.331L60.1844 103.636C60.2684 100.975 60.1854 98.2841 60.1854 95.6201L60.1844 79.3696Z" fill="#F8F8F8"/>
<path d="M88.2841 95.875C90.5691 95.732 92.9201 95.872 95.2141 95.873L138.299 95.8695C140.479 95.8685 148.061 95.601 149.584 96.0295C153.31 97.0775 152.36 101.875 149.233 103.407C147.808 103.539 146.301 103.411 144.864 103.41L105.215 103.409C102.865 103.409 89.0791 103.688 87.7596 103.171C83.9166 101.665 84.9756 97.151 88.2841 95.875Z" fill="#B1B2BD"/>
<path d="M163.476 79.3695C165.466 79.2845 168.035 78.876 169.667 80.2645C171.268 81.628 171.414 84.0855 169.933 85.5965C167.806 87.769 161.629 86.9 158.832 86.9L92.7188 86.8985C90.8578 86.881 87.8933 87.157 86.4048 85.8545C84.8748 84.5155 85.0293 81.854 86.4043 80.4685C88.2968 78.563 94.9148 79.3715 97.4118 79.372L163.476 79.3695Z" fill="#B1B2BD"/>
<path d="M114.205 111.941L162.626 111.934C165.575 111.931 170.684 111.15 170.983 115.676C171.323 120.834 163.488 119.51 160.496 119.509L142.688 119.512L94.8844 119.517C92.5409 119.518 88.4859 120.201 86.5484 118.533C84.9294 117.139 85.0759 114.516 86.5334 113.067C88.4959 111.117 95.2359 111.937 97.8124 111.936L114.205 111.941Z" fill="#B1B2BD"/>
<path d="M89.009 128.111L157.535 128.109C160.069 128.108 167.009 127.465 169.091 128.782C172.468 130.919 170.967 134.974 167.525 135.75C166.258 135.863 164.96 135.77 163.689 135.762L94.5755 135.752C91.5535 135.752 86.0225 136.714 85.2905 132.602C84.8715 130.252 86.865 128.48 89.009 128.111Z" fill="#B1B2BD"/>
</svg>
